<svg width="450" height="256" viewBox="0 0 450 256" fill="none" xmlns="http://www.w3.org/2000/svg">
<g clip-path="url(#clip0)">
<path d="M47.2232 234.352L46.5065 234.084C46.349 234.024 30.6742 228.019 23.3314 214.401C15.9884 200.784 19.5839 184.387 19.6211 184.224L19.7903 183.477L20.5067 183.746C20.6642 183.805 36.3387 189.811 43.6818 203.428C51.0248 217.046 47.4293 233.442 47.3921 233.606L47.2232 234.352ZM24.5073 213.768C30.7153 225.281 43.102 231.183 46.2404 232.53C46.8371 229.167 48.7085 215.564 42.506 204.062C36.3041 192.561 23.9125 186.65 20.7728 185.299C20.1757 188.665 18.3051 202.266 24.5073 213.768Z" fill="#3F3D56"/>
<path d="M29.5085 210.756C42.7045 218.695 47.7866 234.465 47.7866 234.465C47.7866 234.465 31.474 237.362 18.2781 229.423C5.08215 221.484 0 205.715 0 205.715C0 205.715 16.3126 202.817 29.5085 210.756Z" fill="#5B83AA"/>
<path d="M109.365 215.636C109.365 236.565 93.7915 235.432 74.5809 235.432C55.3704 235.432 39.7971 236.565 39.7971 215.636C39.7971 194.707 55.3704 159.643 74.5809 159.643C93.7915 159.643 109.365 194.707 109.365 215.636Z" fill="#3F3D56"/>
<path d="M419.874 234.866H17.1735V235.997H419.874V234.866Z" fill="#3F3D56"/>
<path d="M191.162 42.8152C191.143 42.756 191.124 42.6961 191.105 42.6367C191.113 42.6627 191.123 42.6878 191.131 42.7139L191.162 42.8152Z" fill="#2F2E41"/>
<path d="M126.828 182.2L114.951 193.511L105.336 183.331L120.041 175.978L126.828 182.2Z" fill="#A0616A"/>
<path d="M111.521 184.434C111.521 184.434 125.91 183.494 124.228 187.695C122.546 191.895 126.111 207.335 126.111 207.335C126.111 207.335 131.458 235.065 114.552 224.031C97.647 212.997 101.326 205.331 101.326 205.331C101.326 205.331 96.3921 197.872 97.4433 195.247C98.4946 192.622 106.849 182.54 108.45 183.802C108.862 184.166 109.362 184.416 109.901 184.527C110.44 184.638 110.998 184.606 111.521 184.434Z" fill="#2F2E41"/>
<path d="M106.467 137.518C106.467 137.518 169.813 132.427 174.903 145.436C179.993 158.445 169.813 168.06 169.813 168.06L128.525 188.421L115.356 176.641L122.869 169.756C122.869 169.756 80.4496 177.675 79.3184 171.453C78.1872 165.232 83.8431 132.427 106.467 137.518Z" fill="#2F2E41"/>
<path d="M179.993 148.83C179.993 148.83 191.305 180.503 179.993 178.806C168.682 177.109 169.813 151.658 169.813 151.658L179.993 148.83Z" fill="#A0616A"/>
<path d="M154.825 84.0693C154.825 84.0693 161.895 87.7457 160.763 92.2704C159.632 96.7951 165.288 125.075 165.288 125.075L182.256 149.961L168.116 155.051C168.116 155.051 150.017 143.174 147.189 134.69C144.361 126.206 140.402 113.197 140.402 113.197L154.825 84.0693Z" fill="#D0CDE1"/>
<path d="M151.148 70.7777C161.456 70.7777 169.813 62.4213 169.813 52.1132C169.813 41.8051 161.456 33.4487 151.148 33.4487C140.84 33.4487 132.484 41.8051 132.484 52.1132C132.484 62.4213 140.84 70.7777 151.148 70.7777Z" fill="#A0616A"/>
<path d="M152.562 65.4048C152.562 65.4048 150.3 84.0693 151.431 91.422C152.562 98.7747 128.807 64.8392 128.807 64.8392C128.807 64.8392 138.988 57.4865 138.988 54.6586C138.988 51.8306 152.562 65.4048 152.562 65.4048Z" fill="#A0616A"/>
<path d="M173.732 44.9337C171.919 44.7176 170.086 44.7303 168.275 44.9715C166.449 45.2232 164.783 46.1538 163.612 47.5779C162.321 49.3061 161.892 51.9312 159.869 52.6805C158.664 53.1271 157.268 52.7022 156.062 53.1465C154.614 53.68 153.879 55.2809 153.494 56.7752C153.108 58.2695 152.885 59.8878 151.899 61.0749C150.913 62.262 148.791 62.6609 147.918 61.3885C148.079 60.0234 148.009 58.6409 147.71 57.299C147.554 56.6291 147.233 56.0087 146.777 55.4939C146.32 54.979 145.743 54.5858 145.097 54.3498C142.874 53.7061 140.805 55.6372 139.309 57.402C137.812 59.1668 135.808 61.1349 133.561 60.5825C131.202 60.003 130.398 57.1021 130.138 54.6878C129.547 49.1876 129.634 43.3471 132.294 38.4967C136.144 31.4767 144.932 28.0698 152.863 29.1705C160.793 30.2712 167.793 35.2217 172.909 41.3805C173.74 42.3816 174.559 43.4815 174.737 44.7706" fill="#2F2E41"/>
<path d="M149.734 87.463L143.513 81.2415L132.767 59.749L103.921 68.7985C103.921 68.7985 93.7408 71.6264 87.5193 89.7253C87.5193 89.7253 50.1904 137.801 56.4119 145.719C62.6334 153.637 63.7645 153.071 73.9452 146.85C80.3322 143.004 87.1714 139.964 94.3064 137.801L121.455 140.628L137.857 120.267C137.857 120.267 162.177 104.431 158.218 86.3318L151.431 77.2823L149.734 87.463Z" fill="#575A89"/>
<path d="M145.492 144.305L148.886 146.567C148.886 146.567 167.55 169.756 158.501 174.281C149.452 178.806 140.402 151.657 140.402 151.657L145.492 144.305Z" fill="#A0616A"/>
<path d="M119.844 69.4262C120.519 69.4767 121.175 69.6673 121.771 69.9859C122.367 70.3046 122.891 70.7442 123.307 71.2766C125.551 74.1318 128.896 80.8467 124 92.2703C120.028 101.418 116.812 110.877 114.385 120.55C114.385 120.55 117.213 119.984 117.213 122.247C117.213 124.509 114.95 123.378 117.213 124.509C119.475 125.64 118.91 123.943 119.475 125.64C120.066 127.412 119.423 127.334 120.767 127.981C122.118 128.727 123.296 129.751 124.223 130.986C124.477 131.324 124.784 131.62 125.131 131.862L146.058 142.608C146.058 142.608 148.886 153.92 140.402 153.92C140.402 153.92 88.3677 139.214 89.4989 127.902C90.6048 116.843 92.7919 67.4008 119.844 69.4262Z" fill="#D0CDE1"/>
<path d="M108.729 212.176V226.881L92.8926 225.75L96.2861 211.044L108.729 212.176Z" fill="#A0616A"/>
<path d="M97.4172 218.962C97.4172 218.962 110.426 212.741 110.426 217.266C110.426 221.79 119.475 234.799 119.475 234.799C119.475 234.799 134.746 258.554 114.951 254.595C95.1549 250.636 95.7205 242.152 95.7205 242.152C95.7205 242.152 88.3678 237.061 88.3678 234.233C88.3678 231.405 92.3755 218.94 94.3308 219.517C94.849 219.702 95.4064 219.748 95.9478 219.651C96.4893 219.553 96.9959 219.316 97.4172 218.962Z" fill="#2F2E41"/>
<path d="M81.5806 138.649C81.5806 138.649 121.738 129.599 120.041 144.305C118.344 159.01 116.647 167.494 116.647 167.494L109.86 215.569L94.0236 213.872L92.8924 204.823C92.8924 204.823 89.4989 201.429 91.1957 199.167C92.8924 196.904 88.3677 174.846 88.3677 174.846C88.3677 174.846 61.2194 180.502 58.957 164.1C56.6947 147.698 62.3506 142.608 62.3506 142.608L81.5806 138.649Z" fill="#2F2E41"/>
<path d="M338.013 191.322H236.701V192.46H338.013V191.322Z" fill="#3F3D56"/>
<path d="M338.013 199.29H236.701V200.428H338.013V199.29Z" fill="#3F3D56"/>
<path d="M338.013 207.259H236.701V208.397H338.013V207.259Z" fill="#3F3D56"/>
<path d="M261.549 162.729H238.761V181.244H261.549V162.729Z" fill="#D0CDE1"/>
<path d="M258.226 178.396H234.488V158.931H258.226V178.396ZM235.438 177.446H257.276V159.881H235.438V177.446Z" fill="#3F3D56"/>
<path d="M216.192 173.386C218.691 173.386 220.717 171.361 220.717 168.862C220.717 166.363 218.691 164.337 216.192 164.337C213.693 164.337 211.667 166.363 211.667 168.862C211.667 171.361 213.693 173.386 216.192 173.386Z" fill="#5B83AA"/>
<path d="M338.013 32.3911H236.701V33.5295H338.013V32.3911Z" fill="#3F3D56"/>
<path d="M338.013 40.3594H236.701V41.4977H338.013V40.3594Z" fill="#3F3D56"/>
<path d="M338.013 48.3276H236.701V49.466H338.013V48.3276Z" fill="#3F3D56"/>
<path d="M261.549 3.79785H238.761V22.3129H261.549V3.79785Z" fill="#D0CDE1"/>
<path d="M258.226 19.4646H234.488V0H258.226V19.4646ZM235.438 18.5151H257.276V0.949489H235.438V18.5151Z" fill="#3F3D56"/>
<path d="M216.192 14.4552C218.691 14.4552 220.717 12.4294 220.717 9.93049C220.717 7.43155 218.691 5.40576 216.192 5.40576C213.693 5.40576 211.667 7.43155 211.667 9.93049C211.667 12.4294 213.693 14.4552 216.192 14.4552Z" fill="#5B83AA"/>
<path d="M450 123.451H348.688V124.59H450V123.451Z" fill="#3F3D56"/>
<path d="M450 131.419H348.688V132.558H450V131.419Z" fill="#3F3D56"/>
<path d="M450 139.388H348.688V140.526H450V139.388Z" fill="#3F3D56"/>
<path d="M373.536 94.8579H350.748V113.373H373.536V94.8579Z" fill="#D0CDE1"/>
<path d="M370.213 110.525H346.475V91.0601H370.213V110.525ZM347.425 109.575H369.263V92.0096H347.425V109.575Z" fill="#3F3D56"/>
<path d="M328.179 105.515C330.678 105.515 332.703 103.489 332.703 100.991C332.703 98.4916 330.678 96.4658 328.179 96.4658C325.68 96.4658 323.654 98.4916 323.654 100.991C323.654 103.489 325.68 105.515 328.179 105.515Z" fill="#5B83AA"/>
</g>
<defs>
<clipPath id="clip0">
<rect width="450" height="255.04" fill="white"/>
</clipPath>
</defs>
</svg>
